<?xml version="1.0"?><svg version="1.1" id="Layer_1" xmlns="http://www.w3.org/2000/svg" x="0" y="0" viewBox="0 0 100 100" xml:space="preserve"><path d="M86.143 77.92L75.835 64.76a7.539 7.539 0 0 0-5.974-2.897H30.139a7.537 7.537 0 0 0-5.975 2.899L13.858 77.919a7.383 7.383 0 0 0-.817 7.886C14.321 88.393 16.923 90 19.832 90h60.336c2.909 0 5.511-1.607 6.79-4.195a7.378 7.378 0 0 0-.815-7.885z" fill="#fff" stroke="#323232" stroke-width="3.5" stroke-miterlimit="10"/><path d="M80.168 85.207H19.832c-2.303 0-3.599-2.647-2.188-4.466L27.95 67.456a2.77 2.77 0 0 1 2.188-1.072h39.723a2.77 2.77 0 0 1 2.188 1.072L82.356 80.74c1.411 1.82.114 4.467-2.188 4.467z" fill="#acbd81"/><path d="M48.907 10.029c-10.567.56-19.028 9.548-18.988 20.13a19.956 19.956 0 0 0 5.148 13.332c6.627 7.355 10.866 16.543 11.402 26.429l.152 2.81c.066 1.212 1.559 2.172 3.38 2.172 1.82 0 3.314-.96 3.38-2.172l.145-2.672c.539-9.943 4.793-19.188 11.441-26.601a19.96 19.96 0 0 0 5.116-13.375c-.001-11.453-9.589-20.667-21.176-20.053zM50 40.041c-5.36 0-9.705-4.345-9.705-9.705S44.64 20.63 50 20.63s9.705 4.345 9.705 9.705S55.36 40.041 50 40.041z" fill="#d65a62" stroke="#323232" stroke-width="3.5" stroke-miterlimit="10"/><metadata xmlns:d="https://loading.io/stock/">
<d:name>map</d:name>
<d:tags>map,atlas,direction,waypoint,poi,landmark,scene,hotspot,marker,gps,navigation</d:tags>
<d:license>by</d:license>
<d:slug>v0bwgt</d:slug>
</metadata></svg>