<?xml version="1.0"?>
<svg version="1.1" id="圖層_1" xmlns="http://www.w3.org/2000/svg" x="0" y="0" viewBox="0 0 100 100" xml:space="preserve"><circle cx="50" cy="50" r="38" fill="#f5e6c8" stroke="#333" stroke-width="8" stroke-miterlimit="10"/><g><path d="M54.9 28.4h-8.7c-1 0-1.8.8-1.8 1.8v7.6c0 1 .8 1.8 1.8 1.8h8.7c1 0 1.8-.8 1.8-1.8v-7.6c0-1-.8-1.8-1.8-1.8z" fill="#666"/><path d="M56.7 63V45.4c0-1-.8-1.8-1.8-1.8H42.7c-1 0-1.8.8-1.8 1.8V50c0 1 .8 1.8 1.8 1.8h2.9V63h-2.9c-1 0-1.8.8-1.8 1.8v5.1c0 1 .8 1.8 1.8 1.8h16.8c1 0 1.8-.8 1.8-1.8v-5.1c0-1-.8-1.8-1.8-1.8h-2.8z" fill="#666"/></g><metadata xmlns:d="https://loading.io/stock/"><d:name>information</d:name><d:tags>help,guide,indication,note,hint,tip,information,web application</d:tags><d:license>free</d:license><d:slug>cfs12s</d:slug></metadata></svg>